<svg width="9" height="9" viewBox="0 0 9 9" fill="none" xmlns="http://www.w3.org/2000/svg">
<path fill-rule="evenodd" clip-rule="evenodd" d="M1.29105 0.221523C0.995684 -0.0738419 0.516803 -0.0738416 0.221438 0.221523C-0.073927 0.516888 -0.0739271 0.995769 0.221438 1.29113L2.65041 3.72011C3.08115 4.15085 3.08115 4.84921 2.65041 5.27996L0.2215 7.70887C-0.0738647 8.00423 -0.0738645 8.48311 0.2215 8.77848C0.516865 9.07384 0.995746 9.07384 1.29111 8.77848L3.72002 6.34957C4.15076 5.91883 4.84913 5.91883 5.27987 6.34957L7.70872 8.77841C8.00408 9.07378 8.48296 9.07378 8.77833 8.77841C9.07369 8.48305 9.07369 8.00417 8.77833 7.7088L6.34948 5.27996C5.91874 4.84922 5.91874 4.15085 6.34948 3.72011L8.77839 1.2912C9.07376 0.995832 9.07376 0.516951 8.77839 0.221586C8.48303 -0.0737795 8.00414 -0.0737792 7.70878 0.221586L5.27987 2.65049C4.84913 3.08124 4.15076 3.08124 3.72002 2.65049L1.29105 0.221523Z" fill="#FF8303"/>
</svg>
